Coordinates
version=1
nRows=13
nColumns=63
inDegrees=yes

Units are S.I. units (second, meters, Newtons, ...)
If the header above contains a line with 'inDegrees', this indicates whether rotational values are in degrees (yes) or radians (no).

endheader
time	pelvis_tilt	pelvis_list	pelvis_rotation	pelvis_tx	pelvis_ty	pelvis_tz	hip_flexion_r	hip_adduction_r	hip_rotation_r	knee_angle_r	knee_angle_r_beta	ankle_angle_r	subtalar_angle_r	mtp_angle_r	hip_flexion_l	hip_adduction_l	hip_rotation_l	knee_angle_l	knee_angle_l_beta	ankle_angle_l	subtalar_angle_l	mtp_angle_l	L5_S1_Flex_Ext	L5_S1_Lat_Bending	L5_S1_axial_rotation	L4_L5_Flex_Ext	L4_L5_Lat_Bending	L4_L5_axial_rotation	L3_L4_Flex_Ext	L3_L4_Lat_Bending	L3_L4_axial_rotation	L2_L3_Flex_Ext	L2_L3_Lat_Bending	L2_L3_axial_rotation	L1_L2_Flex_Ext	L1_L2_Lat_Bending	L1_L2_axial_rotation	L1_T12_Flex_Ext	L1_T12_Lat_Bending	L1_T12_axial_rotation	Abs_r3	Abs_r2	Abs_r1	Abs_t1	Abs_t2	neck_flexion	neck_bending	neck_rotation	arm_flex_r	arm_add_r	arm_rot_r	elbow_flex_r	pro_sup_r	wrist_flex_r	wrist_dev_r	arm_flex_l	arm_add_l	arm_rot_l	elbow_flex_l	pro_sup_l	wrist_flex_l	wrist_dev_l
0.000000	-3.125705	-5.037493	71.726260	0.291170	0.584710	0.661446	3.968347	-0.095707	-3.348439	7.418245	0.129473	26.951707	7.369927	0.000000	3.028979	-0.761978	-5.139551	4.840730	0.084487	28.952244	5.175731	0.000000	0.236876	0.005013	0.932007	0.439902	0.006667	0.990257	0.389163	0.012189	0.990257	0.270725	0.012189	0.815506	0.219963	0.010223	0.757255	0.135351	0.007765	0.699005	1.691980	0.056710	5.183541	0.000000	0.000000	27.584479	1.588411	-6.981192	6.709337	-10.432257	62.831128	43.713375	2.129264	6.166935	-10.475696	12.783551	-7.245335	70.258850	38.691875	80.451054	-12.010824	-8.414500
0.016667	-3.560181	-5.087950	70.596871	0.291934	0.585134	0.664345	4.712664	-0.313674	-0.940198	7.618475	0.132967	27.348817	5.958070	0.000000	3.374108	-0.480973	-7.406472	4.729792	0.082550	29.297936	6.809749	0.000000	0.230509	-0.037250	1.199494	0.428079	-0.049542	1.274462	0.378704	-0.090569	1.274462	0.263449	-0.090569	1.049557	0.214051	-0.075959	0.974589	0.131713	-0.057700	0.899620	1.646506	-0.421375	6.671225	0.000000	0.000000	27.552442	1.795436	-6.698882	6.988930	-10.504230	62.523487	44.169324	3.456697	5.782755	-10.298188	13.517639	-7.741445	71.225616	39.726075	78.051002	-11.800760	-7.607756
0.033333	-3.921326	-5.156131	69.653150	0.292457	0.585436	0.666892	5.374182	-0.487191	1.029677	7.802980	0.136188	27.687329	4.840272	0.000000	3.703962	-0.261138	-9.302644	4.669324	0.081495	29.585182	8.179416	0.000000	0.226599	-0.070999	1.424564	0.420816	-0.094429	1.513600	0.372279	-0.172627	1.513600	0.258980	-0.172627	1.246494	0.210420	-0.144782	1.157458	0.129478	-0.109978	1.068423	1.618572	-0.803157	7.922999	0.000000	0.000000	27.530681	1.943841	-6.503074	7.254905	-10.571902	62.230691	44.534687	4.670939	5.335517	-9.991574	14.178321	-8.107013	72.111995	40.497798	76.081647	-11.704912	-7.007112
0.050000	-4.214343	-5.239311	68.883220	0.292763	0.585626	0.669107	5.956631	-0.619989	2.595497	7.971866	0.139135	27.970213	3.988724	0.000000	4.017798	-0.097337	-10.854278	4.654325	0.081233	29.820051	9.306086	0.000000	0.224862	-0.096882	1.610057	0.417592	-0.128853	1.710685	0.369426	-0.235559	1.710685	0.256995	-0.235559	1.408800	0.208807	-0.197562	1.308171	0.128486	-0.150070	1.207542	1.606169	-1.095950	8.954652	0.000000	0.000000	27.518144	2.039258	-6.382950	7.506143	-10.635992	61.955978	44.817387	5.768813	4.843935	-9.582125	14.765960	-8.354146	72.912506	41.033377	74.506865	-11.704947	-6.590433
0.066667	-4.444437	-5.334765	68.275202	0.292870	0.585716	0.671009	6.463739	-0.715799	3.791571	8.125237	0.141812	28.200441	3.375617	0.000000	4.314877	0.015565	-12.087585	4.679796	0.081678	30.008612	10.211109	0.000000	0.225019	-0.115545	1.758810	0.417884	-0.153675	1.868736	0.369684	-0.280936	1.868736	0.257175	-0.280936	1.538959	0.208953	-0.235619	1.429033	0.128576	-0.178979	1.319108	1.607291	-1.307066	9.781974	0.000000	0.000000	27.513777	2.087321	-6.327692	7.741525	-10.697216	61.702587	45.025346	6.747139	4.326722	-9.096115	15.280920	-8.494950	73.621672	41.359149	73.290535	-11.782531	-6.335584
0.083333	-4.616814	-5.439769	67.817218	0.292802	0.585715	0.672617	6.899238	-0.778353	4.652210	8.263199	0.144220	28.380982	2.973139	0.000000	4.594457	0.082705	-13.028775	4.740736	0.082741	30.156933	10.915839	0.000000	0.226789	-0.127634	1.873663	0.421169	-0.169753	1.990767	0.372591	-0.310329	1.990767	0.259197	-0.310329	1.639455	0.210596	-0.260271	1.522351	0.129587	-0.197705	1.405248	1.619929	-1.443820	10.420754	0.000000	0.000000	27.516527	2.093661	-6.326483	7.959931	-10.756290	61.473755	45.166487	7.602741	3.802590	-8.559815	15.723565	-8.541528	74.234012	41.501446	72.396531	-11.919329	-6.220430
0.100000	-4.736677	-5.551597	67.497390	0.292578	0.585636	0.673951	7.266856	-0.811381	5.211721	8.385856	0.146361	28.514808	2.753482	0.000000	4.855797	0.109218	-13.704058	4.832144	0.084337	30.271083	11.441627	0.000000	0.229889	-0.133796	1.957456	0.426927	-0.177948	2.079797	0.377685	-0.325311	2.079797	0.262740	-0.325311	1.712774	0.213475	-0.272836	1.590433	0.131359	-0.207249	1.468092	1.642075	-1.513522	10.886781	0.000000	0.000000	27.525341	2.063913	-6.368504	8.160241	-10.813932	61.272722	45.248732	8.332440	3.290253	-7.999498	16.094258	-8.505989	74.744047	41.486606	71.788732	-12.097007	-6.222837
0.116667	-4.809233	-5.667526	67.303841	0.292221	0.585488	0.675030	7.570323	-0.818615	5.504415	8.493315	0.148236	28.604889	2.688837	0.000000	5.098157	0.100241	-14.139645	4.949020	0.086377	30.357132	11.809826	0.000000	0.234039	-0.134677	2.013026	0.434635	-0.179120	2.138840	0.384503	-0.327453	2.138840	0.267484	-0.327453	1.761398	0.217329	-0.274632	1.635583	0.133730	-0.208614	1.509769	1.671721	-1.523488	11.195845	0.000000	0.000000	27.539164	2.003709	-6.442939	8.341337	-10.870858	61.102724	45.280004	8.933059	2.808423	-7.441436	16.393365	-8.400436	75.146299	41.340962	71.431013	-12.297232	-6.320670
0.133333	-4.839684	-5.784831	67.224691	0.291750	0.585283	0.675872	7.813369	-0.803786	5.564602	8.585680	0.149848	28.654197	2.751392	0.000000	5.320794	0.060909	-14.361747	5.086364	0.088774	30.421147	12.041788	0.000000	0.238959	-0.130923	2.043213	0.443770	-0.174128	2.170913	0.392585	-0.318327	2.170913	0.273106	-0.318327	1.787811	0.221897	-0.266978	1.660110	0.136541	-0.202800	1.532410	1.706858	-1.481029	11.363736	0.000000	0.000000	27.556945	1.918682	-6.538970	8.502098	-10.927785	60.967001	45.268224	9.401419	2.375813	-6.911902	16.621248	-8.236976	75.435287	41.090849	71.287251	-12.501668	-6.491793
0.150000	-4.833237	-5.900786	67.248063	0.291188	0.585031	0.676498	7.999724	-0.770625	5.426591	8.663057	0.151199	28.665700	2.913338	0.000000	5.522969	-0.003641	-14.396573	5.239175	0.091441	30.469198	12.158865	0.000000	0.244366	-0.123182	2.050855	0.453811	-0.163832	2.179034	0.401468	-0.299505	2.179034	0.279285	-0.299505	1.794499	0.226918	-0.251193	1.666320	0.139630	-0.190809	1.538142	1.745479	-1.393458	11.406243	0.000000	0.000000	27.577629	1.814464	-6.645778	8.641406	-10.985430	60.868790	45.221316	9.734343	2.011137	-6.437169	16.778272	-8.027714	75.605533	40.762603	71.321324	-12.691982	-6.714073
0.166667	-4.795095	-6.012667	67.362079	0.290555	0.584743	0.676927	8.133118	-0.722863	5.124692	8.725550	0.152290	28.642371	3.146867	0.000000	5.703941	-0.088274	-14.270333	5.402452	0.094291	30.507353	12.182409	0.000000	0.249979	-0.112099	2.038793	0.464236	-0.149092	2.166218	0.410691	-0.272558	2.166218	0.285701	-0.272558	1.783944	0.232131	-0.228593	1.656519	0.142838	-0.173642	1.529095	1.785575	-1.268090	11.339155	0.000000	0.000000	27.600164	1.696690	-6.752546	8.758142	-11.044510	60.811329	45.147202	9.928653	1.733106	-6.043507	16.864799	-7.784757	75.651557	40.382558	71.497107	-12.849840	-6.965374
0.183333	-4.725774	-6.115139	67.546969	0.289887	0.584450	0.677204	8.217189	-0.650529	4.817310	8.763986	0.152960	28.538283	3.288019	0.000000	5.864644	-0.198969	-14.136146	5.590462	0.097572	30.535736	12.280325	0.000000	0.254820	-0.097438	2.012425	0.473226	-0.129592	2.138202	0.418644	-0.236910	2.138202	0.291234	-0.236910	1.760872	0.236626	-0.198695	1.635095	0.145604	-0.150931	1.509319	1.820153	-1.102234	11.192504	0.000000	0.000000	27.625295	1.545221	-6.851599	8.861040	-11.136514	60.795080	45.090247	9.894758	1.618527	-5.696451	16.902611	-7.520139	75.620203	39.980424	71.431038	-12.879170	-7.189345
0.200000	-4.650792	-6.210644	67.792722	0.289208	0.584104	0.677321	8.271054	-0.594886	4.346263	8.805242	0.153680	28.449807	3.538957	0.000000	6.006760	-0.296081	-13.767343	5.755196	0.100447	30.591379	12.174236	0.000000	0.260563	-0.082392	1.974452	0.483892	-0.109581	2.097855	0.428079	-0.200327	2.097855	0.297798	-0.200327	1.727645	0.241959	-0.168013	1.604242	0.148886	-0.127624	1.480839	1.861176	-0.932029	10.981307	0.000000	0.000000	27.650661	1.432418	-6.871942	8.888187	-11.217016	60.797733	45.042020	9.619251	1.711352	-5.685386	16.806667	-7.273287	75.312471	39.665018	71.510845	-12.760514	-7.298599
